<svg xmlns="http://www.w3.org/2000/svg" width="90" height="32" fill="none"><path fill="#000" d="M1 5.588V8.53h6.764v18.09h3.353V8.528h6.765V5.59H1Z"/><path fill="#000" d="M21.53 10.705c-1.079 0-1.96.261-2.645.78-.687.52-1.188 1.347-1.501 2.485l-.068-1.899-3.079 2.816v11.73h3.323v-8.56c0-.626.078-1.186.235-1.675.158-.49.393-.906.707-1.25a2.83 2.83 0 0 1 1.191-.764c.48-.167 1.044-.25 1.69-.25h1.912v-3.412h-1.764v-.001Zm15.088 1.339c-1.217-1.148-2.941-1.722-5.176-1.722-1.078 0-2.05.138-2.912.413-.863.274-1.608.672-2.235 1.191a6.027 6.027 0 0 0-1.515 1.882c-.382.734-.613 1.574-.69 2.514h3.382c.137-1.039.53-1.848 1.176-2.426.647-.578 1.558-.868 2.736-.868 1.178 0 2.097.304 2.764.912.666.607 1 1.5 1 2.676v.148l-5.824 1.03c-1.842.333-3.21.877-4.102 1.631-.894.755-1.34 1.78-1.34 3.074 0 .746.143 1.402.428 1.97.283.569.666 1.04 1.147 1.412.48.373 1.05.653 1.705.838a7.81 7.81 0 0 0 2.134.28 8.68 8.68 0 0 0 1.956-.221 8.672 8.672 0 0 0 1.735-.588c.519-.246.98-.54 1.383-.883.4-.343.72-.72.955-1.133l.088 2.442h3.03V16.88c0-2.077-.607-3.69-1.823-4.837h-.002Zm-1.47 7.926c0 .627-.118 1.21-.353 1.75a4.263 4.263 0 0 1-.97 1.396 4.256 4.256 0 0 1-1.515.913c-.599.215-1.27.323-2.016.323-.882 0-1.598-.181-2.147-.544-.549-.363-.823-.906-.823-1.633 0-.588.201-1.063.602-1.426.403-.363 1.124-.632 2.162-.808l5.058-.942v.97h.001ZM52.052 5v8.235a5.032 5.032 0 0 0-2.131-2.161c-.932-.5-1.986-.751-3.162-.751-1.04 0-1.985.202-2.838.603a6.377 6.377 0 0 0-2.19 1.69c-.61.727-1.08 1.603-1.413 2.633-.334 1.03-.5 2.172-.5 3.427 0 1.254.166 2.368.5 3.396.333 1.03.804 1.912 1.412 2.648a6.125 6.125 0 0 0 2.191 1.69c.853.393 1.798.59 2.838.59 1.176 0 2.255-.257 3.235-.765a4.762 4.762 0 0 0 2.177-2.295l.088 2.676h3.059V5h-3.266Zm-.308 15.94c-.206.687-.505 1.27-.898 1.75s-.867.843-1.426 1.088c-.56.245-1.192.367-1.898.367s-1.3-.122-1.838-.367a3.78 3.78 0 0 1-1.383-1.074c-.382-.47-.666-1.049-.853-1.736-.187-.685-.28-1.46-.28-2.323s.092-1.66.28-2.337c.187-.677.47-1.252.853-1.722s.844-.828 1.383-1.073c.538-.245 1.152-.367 1.838-.367.687 0 1.339.128 1.898.383a3.992 3.992 0 0 1 1.426 1.088c.393.47.691 1.043.898 1.72.206.676.307 1.436.307 2.279s-.102 1.637-.307 2.323v.001Zm20.496-2.558c0-1.215-.183-2.319-.546-3.31-.363-.988-.882-1.832-1.559-2.528a7.18 7.18 0 0 0-2.44-1.632c-.952-.393-2.014-.59-3.191-.59s-2.285.203-3.265.604c-.98.403-1.814.97-2.5 1.706a7.675 7.675 0 0 0-1.588 2.618c-.373 1.01-.56 2.142-.56 3.396 0 1.255.187 2.364.56 3.383.372 1.02.901 1.897 1.588 2.632a7.152 7.152 0 0 0 2.5 1.72c.98.412 2.08.619 3.294.619 1.921 0 3.54-.496 4.853-1.485 1.314-.99 2.197-2.329 2.647-4.015h-3.5a5.011 5.011 0 0 1-.603 1.132 3.658 3.658 0 0 1-.868.867 3.656 3.656 0 0 1-1.117.53 5.045 5.045 0 0 1-1.383.177c-.646 0-1.24-.107-1.778-.324a3.778 3.778 0 0 1-1.369-.912 4.814 4.814 0 0 1-.926-1.456 6.775 6.775 0 0 1-.485-1.898H72.24v-1.234Zm-12.178-1c.078-.647.24-1.235.485-1.765a4.53 4.53 0 0 1 .942-1.353 4.138 4.138 0 0 1 1.323-.867c.5-.206 1.073-.31 1.72-.31.648 0 1.192.104 1.691.31.5.205.936.495 1.31.867.372.373.665.825.881 1.353a6.88 6.88 0 0 1 .442 1.764H60.06h.001Zm28.641-2.117c-.383-1.02-.926-1.898-1.632-2.633a7.32 7.32 0 0 0-2.53-1.706c-.98-.401-2.07-.603-3.264-.603-1.195 0-2.313.202-3.295.603a7.32 7.32 0 0 0-2.53 1.706 7.425 7.425 0 0 0-1.618 2.633c-.372 1.019-.559 2.147-.559 3.381 0 1.235.187 2.364.56 3.383a7.433 7.433 0 0 0 1.618 2.632 7.445 7.445 0 0 0 2.53 1.72c.98.412 2.078.619 3.294.619 1.215 0 2.284-.207 3.265-.619a7.48 7.48 0 0 0 2.53-1.72 7.62 7.62 0 0 0 1.631-2.632c.383-1.02.573-2.147.573-3.383 0-1.235-.19-2.362-.573-3.381Zm-3.117 5.631a5.043 5.043 0 0 1-.912 1.75c-.401.49-.888.862-1.455 1.117-.57.256-1.217.383-1.941.383-.725 0-1.378-.127-1.957-.383a3.79 3.79 0 0 1-1.454-1.117 5.39 5.39 0 0 1-.913-1.75c-.215-.676-.323-1.426-.323-2.25 0-.825.108-1.573.323-2.25a5.23 5.23 0 0 1 .913-1.735 3.987 3.987 0 0 1 1.454-1.118c.579-.265 1.231-.397 1.957-.397.725 0 1.372.132 1.94.397a4.165 4.165 0 0 1 1.456 1.118c.403.48.706 1.06.912 1.736a7.71 7.71 0 0 1 .31 2.248 7.71 7.71 0 0 1-.31 2.251Z"/><path fill="#000" d="m23.295 10.705-2.014 2.1L14.237 16v-1.112l3.079-2.816 1.494-1.366h4.485Z"/></svg>