<svg width="113" height="40" viewBox="0 0 113 40" fill="none" xmlns="http://www.w3.org/2000/svg">
<path d="M17.0013 9.4725L15.6451 15.2H10.7751L7.24006 30.1363H1.33631L4.87131 15.2H6.10352e-05L1.35506 9.4725H17.0013Z" fill="black"/>
<path d="M27.0378 9.44336H18.7728L13.8828 30.1071H19.7866L21.3228 23.6121H22.7991L24.5391 30.1071H30.8566L28.6053 22.4021C30.8341 21.2209 32.5478 19.2134 33.1416 16.7046C34.1966 12.2471 31.4953 9.44336 27.0378 9.44336ZM27.2103 16.8234C26.9241 18.0334 25.9591 18.7421 24.7266 18.7121H22.4828L23.3916 14.8746H25.6341C26.8741 14.8746 27.4966 15.6121 27.2103 16.8234Z" fill="black"/>
<path d="M49.5141 9.47266H42.6066L31.1328 30.1364H37.4803L38.8166 27.4802H44.7803L44.8603 30.1364H51.2066L49.5141 9.47266ZM41.2041 22.7564L44.4178 16.4102L44.6278 22.7564H41.2041Z" fill="black"/>
<path d="M65.8419 9.47266H57.2806L52.3906 30.1364H60.9519C66.6494 30.1364 72.0506 25.6502 73.4331 19.8052C74.8169 13.9602 71.5394 9.47266 65.8419 9.47266ZM67.5294 19.8052C66.8794 22.5502 64.6981 24.4102 62.3069 24.4102H59.9456L62.1244 15.2002H64.4869C66.8769 15.2002 68.1794 17.0602 67.5294 19.8052Z" fill="black"/>
<path d="M80.3919 24.7052H88.0669L86.7819 30.1364H73.2031L78.0931 9.47266H91.5244L90.2531 14.8452H82.7256L82.1944 17.0889H88.9844L87.7269 22.4027H80.9369L80.3919 24.7052Z" fill="black"/>
<path d="M104.218 9C98.1071 9 92.1558 13.6938 90.7096 19.805C89.2633 25.915 92.9933 30.6087 99.1046 30.6087C105.216 30.6087 111.167 25.915 112.613 19.805C114.06 13.6938 110.328 9 104.218 9ZM106.71 19.805C106.031 22.6688 103.396 24.8237 100.473 24.8237C97.5508 24.8237 95.9358 22.6688 96.6133 19.805C97.2908 16.9413 99.9258 14.7863 102.848 14.7863C105.771 14.7863 107.387 16.9413 106.71 19.805Z" fill="black"/>
</svg>
