<svg width="581" height="361" viewBox="0 0 581 361" fill="none" xmlns="http://www.w3.org/2000/svg">
<g clip-path="url(#clip0)">
<path d="M170.8 289.88C166.75 289.88 163.54 288.79 161.18 286.58C159.998 285.451 159.07 284.083 158.458 282.568C157.846 281.052 157.564 279.423 157.63 277.79C157.586 274.465 158.337 271.177 159.82 268.2C161.206 265.443 163.332 263.127 165.96 261.51C168.695 259.856 171.844 259.013 175.04 259.08C180.333 259.08 184.29 261.183 186.91 265.39L197.91 256.61C195.889 253.266 192.871 250.64 189.28 249.1C185.113 247.259 180.594 246.351 176.04 246.44C169.928 246.329 163.886 247.757 158.47 250.59C153.462 253.237 149.302 257.244 146.47 262.15C143.588 267.216 142.113 272.962 142.2 278.79C142.118 283.152 143.265 287.449 145.51 291.19C147.785 294.842 151.076 297.751 154.98 299.56C159.475 301.622 164.376 302.647 169.32 302.56C173.893 302.644 178.439 301.846 182.71 300.21C186.738 298.559 190.279 295.909 193 292.51L184 283.65C182.403 285.607 180.389 287.182 178.105 288.26C175.821 289.338 173.325 289.891 170.8 289.88Z" fill="#E92A3E"/>
<path d="M239 247.52H224L189.4 301.44H205.49L211.72 291H234.67L236.83 301.48H252L239 247.52ZM218.43 279.71L228.75 262.23L232.37 279.71H218.43Z" fill="#E92A3E"/>
<path d="M308 277.45C310.658 273.739 312.034 269.263 311.92 264.7C311.92 259.313 310.023 255.1 306.23 252.06C302.437 249.02 297.103 247.507 290.23 247.52H267.23L256.4 301.44H271.64L274.49 287.12H282.19L290.19 301.44H306.13L297 285.27C301.382 283.853 305.222 281.123 308 277.45ZM293.74 272.93C291.89 274.54 289.28 275.33 285.89 275.33H276.79L280 259.54H288C290.206 259.404 292.398 259.982 294.25 261.19C295.006 261.774 295.605 262.537 295.994 263.409C296.384 264.282 296.55 265.237 296.48 266.19C296.557 267.446 296.352 268.704 295.88 269.87C295.408 271.036 294.68 272.082 293.75 272.93H293.74Z" fill="#E92A3E"/>
<path d="M373.52 271.63C370.698 270.535 367.805 269.633 364.86 268.93C362.484 268.374 360.164 267.601 357.93 266.62C357.287 266.395 356.727 265.98 356.326 265.43C355.924 264.88 355.699 264.221 355.68 263.54C355.68 262 356.54 260.75 358.28 259.77C360.486 258.681 362.933 258.175 365.39 258.3C368.03 258.283 370.66 258.62 373.21 259.3C375.681 259.941 378.041 260.953 380.21 262.3L385.75 250.97C383.07 249.385 380.158 248.231 377.12 247.55C373.582 246.735 369.961 246.336 366.33 246.36C361.652 246.26 357 247.068 352.63 248.74C349.053 250.096 345.933 252.436 343.63 255.49C341.509 258.44 340.401 261.997 340.47 265.63C340.339 268.412 341.228 271.147 342.97 273.32C344.595 275.23 346.652 276.724 348.97 277.68C351.815 278.797 354.728 279.736 357.69 280.49C360.024 281.051 362.304 281.821 364.5 282.79C365.124 283.013 365.668 283.418 366.06 283.953C366.452 284.488 366.675 285.128 366.7 285.79C366.683 286.549 366.443 287.285 366.011 287.909C365.579 288.533 364.974 289.017 364.27 289.3C362.127 290.25 359.791 290.685 357.45 290.57C351.083 290.525 344.86 288.677 339.5 285.24L333.5 296.65C336.516 298.559 339.822 299.964 343.29 300.81C347.432 301.913 351.703 302.458 355.99 302.43C360.66 302.521 365.305 301.713 369.67 300.05C373.276 298.703 376.428 296.363 378.76 293.3C380.898 290.387 382.019 286.853 381.95 283.24C382.079 280.532 381.203 277.872 379.49 275.77C377.863 273.929 375.815 272.509 373.52 271.63Z" fill="#E92A3E"/>
<path d="M428.79 247.52H413.79L379.2 301.44H395.31L401.52 291H424.52L426.67 301.48H441.85L428.79 247.52ZM408.23 279.71L418.55 262.23L422.17 279.71H408.23Z" fill="#E92A3E"/>
<path d="M496.82 259.31L499.2 247.52H457L446.2 301.44H461.46L465.15 283H488.88L491.26 271.21H467.47L469.85 259.36L496.82 259.31Z" fill="#E92A3E"/>
<path d="M536.72 247.52H521.72L487.12 301.44H503.23L509.45 291H532.45L534.61 301.48H549.78L536.72 247.52ZM516.15 279.71L526.47 262.23L530.09 279.71H516.15Z" fill="#E92A3E"/>
<path d="M564.92 247.52L554.13 301.44H569.38L580.16 247.52H564.92Z" fill="#E92A3E"/>
<path d="M81.3099 279.6C75.9932 280.771 70.5875 281.494 65.1499 281.76C62.0599 277.23 58.9499 272.59 55.8799 267.84C57.3799 267.74 58.8799 267.71 60.4099 267.71C62.0799 267.71 63.7499 267.76 65.4099 267.86C70.7695 268.136 76.0974 268.852 81.3399 270C81.6399 270.06 81.9199 270.13 82.2199 270.21C82.2199 270.49 82.2799 270.76 82.2999 270.92H119.81C119.81 261.13 119.81 251.16 119.81 241.15C121 241.15 122.07 241.24 123.06 241.25V308.34L119.86 308.26C119.86 298.4 119.86 288.46 119.86 278.61H82.3299C82.4799 279.32 81.9399 279.46 81.3099 279.6Z" fill="#264C6F"/>
<path d="M165.63 311.71L164.98 312.57L160.6 318.34C141.04 343.84 126.14 360.34 126.14 360.34C105.082 336.399 85.4483 311.243 67.3401 285C72.2737 284.634 77.1736 283.906 82.0001 282.82C82.7527 282.678 83.4677 282.382 84.1001 281.95H116.5V293.32V308.32V311.56L119.76 311.62H121.25L123.03 311.67V311.73H138.89L165.63 311.71Z" fill="#264C6F"/>
<path d="M132.21 241.23H126.32V308.43H132.21V241.23Z" fill="#264C6F"/>
<path d="M207.38 105.4C205.626 95.3369 201.974 85.6992 196.62 77C196.42 76.65 196.2 76.31 195.97 76C195.59 75.39 195.18 74.76 194.78 74.16C194.38 73.56 193.96 72.97 193.54 72.39C188.27 64.9708 181.818 58.4675 174.44 53.14C173.6 52.55 172.76 51.95 171.88 51.38C154.206 39.4774 132.605 34.8926 111.62 38.59H111.41C110.6 38.73 109.8 38.88 109.02 39.07C96.6675 41.6327 85.0837 47.0429 75.1899 54.87C74.3799 55.53 73.5699 56.19 72.7599 56.87C60.7729 67.1263 51.9613 80.59 47.3599 95.68C46.7999 97.53 46.2999 99.38 45.8699 101.29C44.9465 105.329 44.3215 109.43 43.9999 113.56C43.8799 114.98 43.8199 116.4 43.7799 117.82C43.651 122.666 43.9388 127.513 44.6399 132.31C44.7599 133.24 44.8899 134.13 45.0599 135.04C45.0803 135.185 45.1104 135.329 45.1499 135.47C45.6545 138.286 46.3223 141.071 47.1499 143.81C47.9358 146.444 48.8536 149.038 49.8999 151.58C51.9971 156.718 54.6282 161.622 57.7499 166.21C57.6199 165.97 57.4999 165.73 57.3699 165.47C57.0699 164.89 56.7599 164.32 56.4799 163.74C56.1999 163.16 55.8699 162.5 55.5899 161.85L55.1399 160.85C54.3799 159.163 53.6666 157.433 52.9999 155.66C52.7999 155.11 52.5899 154.57 52.4199 154.02C52.1599 153.32 51.9299 152.63 51.6999 151.92C51.1699 150.2 50.6399 148.47 50.1899 146.68C48.4399 141.49 50.9999 139.16 56.8699 139.37C61.4399 139.54 65.9799 139.64 70.5599 139.77C75.9099 139.92 81.2599 140.08 86.5599 140.38C86.5599 140.38 86.6499 140.38 86.6999 140.38C89.855 140.443 92.9113 141.492 95.4399 143.38C99.5599 146.7 100.49 152.38 97.3099 158.92C96.7699 160.05 96.2099 161.17 95.6299 162.29C91.7199 170.03 87.5599 177.62 83.6999 185.41C83.2138 186.477 82.5699 187.465 81.7899 188.34C81.6699 188.45 81.5699 188.57 81.4399 188.67C81.3399 188.78 81.2294 188.881 81.1099 188.97C86.3135 192.333 91.8826 195.094 97.7099 197.2C97.7099 196.99 97.8399 196.77 97.9199 196.52C97.9575 196.442 97.9909 196.362 98.0199 196.28C98.3304 195.582 98.7019 194.913 99.1299 194.28C100.13 192.64 101.22 190.99 102.22 189.28C104.59 185.45 106.9 181.56 109.22 177.71C111.02 174.71 112.82 171.76 114.71 168.83C120.79 159.25 130.22 159.24 136.71 168.76C138.08 170.76 139.44 172.76 140.71 174.86C142.93 178.27 145.11 181.72 147.29 185.16C149.29 188.37 150.95 190.97 152.1 193.16C152.87 194.503 153.494 195.924 153.96 197.4C158.491 195.797 162.869 193.789 167.04 191.4C168.59 190.53 170.13 189.59 171.62 188.58C170.173 187.926 169.022 186.757 168.39 185.3C163.15 175.68 157.63 166.22 152.78 156.4C149.08 148.89 153.92 140.79 162.62 139.33C163.68 139.33 164.74 139.25 165.81 139.22C168.18 139.1 170.54 139.03 172.94 138.93C180.27 138.65 187.71 138.37 195.13 137.99C199.66 137.76 201.65 139.68 200.75 143.99C200.41 145.66 200.03 147.31 199.6 148.92C198.411 153.462 196.822 157.889 194.85 162.15C192.796 166.671 190.297 170.975 187.39 175C188.25 174 189.09 173.07 189.9 172.07C192.3 169.143 194.489 166.048 196.45 162.81C197.45 161.14 198.45 159.45 199.34 157.71C200.489 155.517 201.527 153.268 202.45 150.97C202.88 149.97 203.28 148.87 203.66 147.81C208.601 134.241 209.877 119.609 207.36 105.39L207.38 105.4ZM85.5299 120.19L84.6699 120.3C78.7499 120.58 71.7499 120.78 64.4899 121.19C61.9799 121.33 59.4199 121.49 56.8499 121.67C50.5999 122.14 48.7999 119.67 50.1199 113.84C50.7103 111.192 51.4346 108.575 52.2899 106C56.3682 93.6363 63.4336 82.4697 72.8599 73.49C74.5499 71.87 75.9999 71 77.3399 70.83C79.3399 70.59 80.9499 71.97 82.5199 74.93C85.2399 80 87.9999 85.11 90.7999 90.21C91.6399 91.73 92.4599 93.21 93.2799 94.75C94.4099 96.87 95.5299 98.95 96.6399 101.07C101.63 110.66 97.6999 118.4 85.5299 120.19ZM127.41 141.55C124.268 142.009 121.07 141.251 118.468 139.432C115.866 137.612 114.057 134.868 113.41 131.76C113.192 130.434 113.212 129.079 113.47 127.76C113.793 126.15 114.444 124.623 115.382 123.275C116.319 121.926 117.523 120.784 118.92 119.92C120.31 119.033 121.87 118.447 123.5 118.2C125.052 117.935 126.642 117.989 128.174 118.357C129.705 118.725 131.145 119.401 132.408 120.342C133.67 121.284 134.728 122.472 135.517 123.835C136.307 125.198 136.811 126.706 137 128.27C137.357 131.283 136.57 134.32 134.794 136.779C133.018 139.239 130.382 140.942 127.41 141.55ZM135.18 91.68C133.18 94.87 130.52 97.04 127.31 97.35C127.227 97.3598 127.143 97.3598 127.06 97.35C121.47 98.22 117.58 96.35 114.92 92.35C111.83 87.7 108.8 83.02 105.79 78.35L97.4999 65.47C94.9799 61.55 95.4999 58.57 100.28 57.07C106.578 55.0058 113.101 53.7097 119.71 53.21C129.259 52.4947 138.858 53.5906 148 56.44C150.6 57.25 152.3 58.29 152.83 59.81C153.31 61.1 152.93 62.81 151.56 64.95C146 73.82 140.66 82.8 135.18 91.68ZM195 120.27C184.28 119.94 173.57 119.87 162.88 119.34C160.201 119.294 157.619 118.326 155.57 116.6C153.371 114.554 151.82 111.908 151.11 108.99C151.11 108.83 151.11 108.64 151.11 108.46C151.013 107.211 151.173 105.955 151.58 104.77C152.27 103.35 152.98 101.95 153.68 100.54C158.42 90.9466 163.253 81.4 168.18 71.9C169.75 68.9 172.39 69.07 174.76 71.07C180.056 75.5295 184.733 80.6748 188.67 86.37C194.341 94.7423 198.363 104.12 200.52 114C201.48 118.15 199.48 120.42 195 120.27Z" fill="#264C6F"/>
<path d="M126.14 7.78485e-05C109.572 -0.0183391 93.1622 3.23114 77.8512 9.56249C62.5402 15.8938 48.6282 25.1828 36.9116 36.8975C25.195 48.6122 15.9039 62.5227 9.57013 77.8327C3.23634 93.1428 -0.0157325 109.552 5.72223e-05 126.12C5.72223e-05 168.79 25.6601 220.61 53.8301 264.65C56.0301 264.483 58.2234 264.4 60.4101 264.4C62.1401 264.4 63.9101 264.45 65.6301 264.55C71.1619 264.86 76.6598 265.616 82.0701 266.81C82.3001 266.86 82.5201 266.91 82.7601 266.98L83.0101 267.05L85.2401 267.59V267.66H100.46H116.46V259.84V241.22V237.8L119.87 237.9L122.4 237.98H123H132.2V237.93H214.57L215 237L218 231.63L218.48 230.77C237.7 195.51 252.23 158.21 252.23 126.09C252.242 109.528 248.989 93.1268 242.656 77.8235C236.324 62.5202 227.036 48.6155 215.326 36.9046C203.615 25.1937 189.71 15.9064 174.407 9.57401C159.103 3.24158 142.702 -0.0117562 126.14 7.78485e-05ZM222 156C221.52 157.3 221 158.59 220.46 159.88C219.6 161.88 218.66 163.88 217.69 165.88L217.32 166.59C217.25 166.71 217.19 166.86 217.12 166.97C215.139 170.822 212.908 174.54 210.44 178.1C209.86 178.93 209.28 179.74 208.71 180.53C193.034 201.749 169.822 216.153 143.85 220.78C140.356 221.438 136.827 221.892 133.28 222.14C130.9 222.32 128.53 222.42 126.17 222.44C120.295 222.5 114.427 222.018 108.64 221C106.96 220.7 105.27 220.37 103.64 220C83.3252 215.376 64.8987 204.679 50.8101 189.33C49.7301 188.17 48.6867 186.977 47.6801 185.75C39.0392 175.461 32.5145 163.567 28.4801 150.75C28.4801 150.65 28.4201 150.52 28.3801 150.42C27.6101 147.86 26.9101 145.23 26.3201 142.56C26.0001 141.21 25.7201 139.82 25.4701 138.43C25.1101 136.43 24.8001 134.43 24.5601 132.38C22.9854 119.499 23.8608 106.436 27.1401 93.8801C27.5401 92.3301 27.9901 90.7901 28.4701 89.2501C35.7679 65.7117 51.2756 45.5765 72.1701 32.5101L74.4001 31.1901C78.6992 28.6809 83.1859 26.5077 87.8201 24.6901C88.7101 24.3301 89.6301 23.9801 90.5401 23.6901C95.6153 21.8571 100.833 20.4457 106.14 19.4701C137.14 13.8001 166.92 21.8401 189.41 39.3201C190.27 40.0001 191.12 40.6601 191.94 41.3201C195.208 44.0067 198.295 46.9063 201.18 50.0001C202.12 51.0001 203.03 52.0001 203.93 53.0801C215.718 66.8424 223.608 83.5091 226.78 101.35C229.503 116.016 228.995 131.1 225.29 145.55C224.39 149.092 223.291 152.581 222 156Z" fill="#264C6F"/>
<path d="M119.76 241.18C119.76 251.18 119.76 261.18 119.76 270.95H82.3C82.3 270.79 82.3 270.52 82.22 270.24C81.92 270.16 81.64 270.09 81.34 270.03C76.1052 268.869 70.784 268.14 65.43 267.85C63.75 267.75 62.08 267.7 60.43 267.7C58.91 267.7 57.43 267.7 55.9 267.83C49.7864 268.163 43.7169 269.064 37.77 270.52C37.4149 270.59 37.0847 270.753 36.8125 270.992C36.5404 271.231 36.336 271.537 36.22 271.88C35.8194 272.831 35.618 273.854 35.6283 274.886C35.6386 275.918 35.8604 276.937 36.28 277.88C36.3933 278.166 36.5775 278.42 36.8154 278.615C37.0533 278.811 37.337 278.944 37.64 279C45.0982 280.899 52.7637 281.863 60.46 281.87C62.03 281.87 63.58 281.87 65.15 281.73C70.5876 281.464 75.9933 280.741 81.31 279.57C81.94 279.43 82.48 279.29 82.31 278.57H119.8C119.8 288.42 119.8 298.36 119.8 308.22L123 308.3V241.28C122 241.27 121 241.23 119.76 241.18ZM42.58 276.47C42.1526 276.885 41.5805 277.117 40.985 277.117C40.3894 277.117 39.8173 276.885 39.39 276.47C38.9576 276.034 38.715 275.444 38.715 274.83C38.715 274.216 38.9576 273.626 39.39 273.19C39.8289 272.77 40.4168 272.541 41.0245 272.554C41.6321 272.567 42.2096 272.821 42.63 273.26C43.0503 273.699 43.2791 274.287 43.266 274.894C43.2529 275.502 42.9989 276.08 42.56 276.5L42.58 276.47Z" fill="#E92A3E"/>
<path d="M126.32 241.23V308.44H126.52V308.37V241.3V241.23H126.32Z" fill="white"/>
<path d="M135.56 241.23H126.32V308.43H135.56V241.23Z" fill="#E92A3E"/>
<path d="M214.58 237.88L116.35 238.01V237.36L214.58 237.88Z" fill="#264C6F"/>
<path d="M165.63 311.71L116.48 311.53V313.01L165.63 311.71Z" fill="#264C6F"/>
</g>
<defs>
<clipPath id="clip0">
<rect width="580.16" height="360.34" fill="white"/>
</clipPath>
</defs>
</svg>
