<svg width="406" height="139" viewBox="0 0 406 139" fill="none" xmlns="http://www.w3.org/2000/svg">
<mask id="mask0_4514_371" style="mask-type:luminance" maskUnits="userSpaceOnUse" x="52" y="68" width="65" height="56">
<path d="M52.8174 68.3228H117V124H52.8174V68.3228Z" fill="white"/>
</mask>
<g mask="url(#mask0_4514_371)">
<path d="M85.1615 69.3228L53.7969 123.64H85.4635L116.823 69.3228H85.1615Z" fill="#1B6296"/>
</g>
<mask id="mask1_4514_371" style="mask-type:luminance" maskUnits="userSpaceOnUse" x="67" y="38" width="50" height="32">
<path d="M67.4844 38.9897H117V69.6564H67.4844V38.9897Z" fill="white"/>
</mask>
<g mask="url(#mask1_4514_371)">
<path d="M99.7816 39.7969H68.1201L85.1618 69.3229H116.823L99.7816 39.7969Z" fill="#2983C6"/>
</g>
<mask id="mask2_4514_371" style="mask-type:luminance" maskUnits="userSpaceOnUse" x="15" y="15" width="64" height="55">
<path d="M15 15H78.151V69.6563H15V15Z" fill="white"/>
</mask>
<g mask="url(#mask2_4514_371)">
<path d="M46.6878 15H15.0264L46.3857 69.3229H78.0524L46.6878 15Z" fill="#1B6296"/>
</g>
<path d="M46.3854 69.3228L29.3438 98.8436H61.0052L78.0521 69.3228H46.3854Z" fill="#2983C6"/>
<path d="M137.463 94.0954L146.13 56.4495H132.067L133.755 49.2412H169.901L168.213 56.4495H154.151L145.526 94.0954H137.463Z" fill="#1B6296"/>
<path d="M168.252 94.1579L178.627 49.2412H192.939C195.033 49.2412 196.95 49.5537 198.689 50.1787C200.439 50.8037 201.908 51.7152 203.106 52.9079C204.299 54.1058 205.117 55.5641 205.564 57.2829C206.007 58.9912 205.981 60.9495 205.481 63.1579C205.075 64.9079 204.335 66.512 203.252 67.9704C202.169 69.4287 200.856 70.6943 199.314 71.762C197.773 72.835 196.075 73.6683 194.231 74.262L201.877 94.1579H193.189L186.564 74.9287H180.773L176.273 94.1579H168.252ZM182.335 68.3454H189.231C190.689 68.2933 192.002 67.9912 193.169 67.4495C194.346 66.8975 195.335 66.137 196.127 65.1787C196.919 64.21 197.45 63.0954 197.731 61.8454C198.132 60.1943 197.814 58.8818 196.773 57.9079C195.731 56.9391 194.054 56.4495 191.752 56.4495H185.064L182.335 68.3454Z" fill="#1B6296"/>
<path d="M205.375 94.0954L233.604 49.2412H239.667L247.188 94.0954H238.625L237.396 84.3454H219.958L214.25 94.0954H205.375ZM224.354 77.4704H236.271L234.146 61.0954L224.354 77.4704Z" fill="#1B6296"/>
<path d="M255.733 94.0954L266.046 49.2412H278.858C283.952 49.2412 288.035 50.1579 291.108 51.9912C294.176 53.8245 296.213 56.4912 297.213 59.9912C298.223 63.4808 298.15 67.7152 296.983 72.6995C295.926 77.2308 294.14 81.0902 291.629 84.2829C289.129 87.4652 285.963 89.8975 282.129 91.5745C278.296 93.2568 273.864 94.0954 268.838 94.0954H255.733ZM265.463 86.6995H269.379C272.671 86.6995 275.655 86.1943 278.338 85.1787C281.015 84.1683 283.285 82.5068 285.15 80.1995C287.025 77.8975 288.405 74.8141 289.296 70.9495C290.088 67.5329 290.223 64.7725 289.713 62.6579C289.213 60.5485 287.963 59.0225 285.963 58.0745C283.963 57.1162 281.119 56.637 277.442 56.637H272.421L265.463 86.6995Z" fill="#1B6296"/>
<path d="M302.729 94.0954L313.041 49.2412H342.874L341.187 56.637H319.416L316.749 67.9704H337.02L335.354 75.3662H315.062L312.52 86.4704H334.291L332.562 94.0954H302.729Z" fill="#1B6296"/>
<path d="M363.204 94.7201C360.204 94.7201 357.61 94.3034 355.433 93.4701C353.251 92.6367 351.454 91.4805 350.037 89.9909C348.631 88.4909 347.584 86.7513 346.892 84.7617C346.194 82.7773 345.829 80.6107 345.787 78.2617C345.756 75.918 346.043 73.4805 346.642 70.9492C347.183 68.5898 347.975 66.3138 349.017 64.1159C350.069 61.9076 351.36 59.8659 352.892 57.9909C354.433 56.1055 356.204 54.4596 358.204 53.0534C360.215 51.6367 362.459 50.543 364.933 49.7617C367.418 48.9701 370.121 48.5742 373.037 48.5742C376.037 48.5742 378.626 49.0013 380.808 49.8451C382.985 50.6784 384.777 51.8451 386.183 53.3451C387.6 54.8346 388.647 56.5742 389.329 58.5742C390.022 60.5638 390.381 62.7357 390.412 65.0951C390.454 67.444 390.183 69.8763 389.6 72.3867C389.058 74.7617 388.256 77.0482 387.204 79.2409C386.162 81.4388 384.871 83.4701 383.329 85.3451C381.798 87.2201 380.027 88.8659 378.017 90.2826C376.017 91.6888 373.772 92.7773 371.287 93.5534C368.814 94.3294 366.121 94.7201 363.204 94.7201ZM363.996 87.5951C366.465 87.5951 368.662 87.1523 370.579 86.2617C372.506 85.3763 374.194 84.1523 375.642 82.5951C377.084 81.043 378.277 79.2617 379.225 77.2617C380.183 75.2617 380.912 73.1576 381.412 70.9492C381.881 68.9492 382.105 67.0326 382.079 65.1992C382.064 63.3659 381.715 61.7409 381.037 60.3242C380.355 58.9076 379.293 57.7982 377.85 56.9909C376.418 56.1732 374.527 55.7617 372.183 55.7617C369.725 55.7617 367.527 56.2096 365.6 57.0951C363.683 57.9857 362.006 59.2096 360.579 60.7617C359.147 62.319 357.954 64.0898 356.996 66.0742C356.048 68.0638 355.329 70.168 354.829 72.3867C354.355 74.4023 354.126 76.3242 354.142 78.1576C354.168 79.9805 354.517 81.5951 355.183 83.0117C355.85 84.4284 356.897 85.5482 358.329 86.3659C359.756 87.1888 361.647 87.5951 363.996 87.5951Z" fill="#1B6296"/>
<path d="M130.067 120.071V116.258L126.4 110.321H128.525L130.963 114.571L133.421 110.321H135.546L131.9 116.258V120.071H130.067Z" fill="#2983C6"/>
<path d="M144.368 120.217C143.728 120.217 143.15 120.123 142.639 119.946C142.139 119.769 141.702 119.524 141.327 119.217C140.952 118.899 140.639 118.529 140.389 118.113C140.139 117.686 139.952 117.227 139.827 116.738C139.712 116.238 139.66 115.727 139.66 115.196C139.66 114.654 139.712 114.144 139.827 113.654C139.952 113.154 140.139 112.696 140.389 112.279C140.639 111.852 140.952 111.483 141.327 111.175C141.702 110.858 142.139 110.613 142.639 110.446C143.15 110.269 143.728 110.175 144.368 110.175C145.02 110.175 145.598 110.269 146.098 110.446C146.608 110.613 147.056 110.858 147.431 111.175C147.806 111.483 148.108 111.852 148.348 112.279C148.598 112.696 148.775 113.154 148.889 113.654C149.014 114.144 149.077 114.654 149.077 115.196C149.077 115.727 149.014 116.238 148.889 116.738C148.775 117.227 148.598 117.686 148.348 118.113C148.108 118.529 147.806 118.899 147.431 119.217C147.056 119.524 146.608 119.769 146.098 119.946C145.598 120.123 145.02 120.217 144.368 120.217ZM144.368 118.654C144.895 118.654 145.337 118.566 145.702 118.384C146.061 118.191 146.353 117.936 146.577 117.613C146.811 117.295 146.978 116.925 147.077 116.509C147.186 116.092 147.243 115.654 147.243 115.196C147.243 114.727 147.186 114.29 147.077 113.884C146.978 113.467 146.811 113.102 146.577 112.779C146.353 112.446 146.061 112.191 145.702 112.009C145.337 111.816 144.895 111.717 144.368 111.717C143.853 111.717 143.41 111.816 143.035 112.009C142.671 112.191 142.379 112.446 142.16 112.779C141.936 113.102 141.77 113.467 141.66 113.884C141.561 114.29 141.514 114.727 141.514 115.196C141.514 115.654 141.561 116.092 141.66 116.509C141.77 116.925 141.936 117.295 142.16 117.613C142.379 117.936 142.671 118.191 143.035 118.384C143.41 118.566 143.853 118.654 144.368 118.654Z" fill="#2983C6"/>
<path d="M157.987 120.217C157.112 120.217 156.393 120.06 155.841 119.737C155.299 119.404 154.893 118.946 154.633 118.362C154.383 117.769 154.258 117.066 154.258 116.258V110.321H156.008V116.071C156.008 116.602 156.06 117.045 156.174 117.404C156.284 117.769 156.477 118.045 156.758 118.237C157.049 118.42 157.456 118.508 157.987 118.508C158.513 118.508 158.914 118.42 159.195 118.237C159.487 118.045 159.685 117.769 159.799 117.404C159.909 117.045 159.966 116.602 159.966 116.071V110.321H161.716V116.196C161.716 117.019 161.581 117.732 161.32 118.342C161.07 118.941 160.664 119.404 160.112 119.737C159.57 120.06 158.862 120.217 157.987 120.217Z" fill="#2983C6"/>
<path d="M167.563 120.092V110.321H170.73C171.188 110.321 171.616 110.383 172.022 110.508C172.423 110.633 172.777 110.821 173.084 111.071C173.402 111.31 173.652 111.607 173.834 111.967C174.011 112.331 174.105 112.732 174.105 113.175C174.105 113.592 174.022 113.967 173.855 114.3C173.688 114.633 173.459 114.925 173.168 115.175C172.886 115.415 172.563 115.592 172.188 115.717L174.918 120.092H172.897L170.501 115.904H169.334V120.092H167.563ZM169.334 114.467H170.876C171.345 114.441 171.715 114.316 171.98 114.092C172.241 113.873 172.376 113.581 172.376 113.217C172.376 112.816 172.23 112.498 171.938 112.258C171.647 112.008 171.251 111.883 170.751 111.883H169.334V114.467Z" fill="#2983C6"/>
<path d="M190.903 120.217C190.262 120.217 189.684 120.123 189.174 119.946C188.674 119.769 188.236 119.524 187.861 119.217C187.486 118.899 187.174 118.529 186.924 118.113C186.674 117.696 186.486 117.238 186.361 116.738C186.236 116.238 186.174 115.727 186.174 115.196C186.174 114.654 186.226 114.144 186.34 113.654C186.465 113.154 186.653 112.696 186.903 112.279C187.153 111.852 187.465 111.477 187.84 111.154C188.215 110.837 188.653 110.592 189.153 110.425C189.663 110.248 190.242 110.154 190.882 110.154C191.518 110.154 192.111 110.269 192.653 110.488C193.205 110.696 193.695 111.008 194.111 111.425C194.538 111.842 194.887 112.357 195.153 112.967L193.59 113.613C193.434 113.17 193.226 112.811 192.965 112.529C192.7 112.238 192.387 112.029 192.028 111.904C191.663 111.769 191.283 111.696 190.882 111.696C190.367 111.696 189.924 111.79 189.549 111.967C189.174 112.149 188.861 112.399 188.611 112.717C188.372 113.04 188.2 113.404 188.09 113.821C187.976 114.238 187.924 114.67 187.924 115.113C187.924 115.602 187.976 116.061 188.09 116.488C188.2 116.904 188.372 117.279 188.611 117.613C188.861 117.936 189.174 118.186 189.549 118.363C189.924 118.545 190.372 118.633 190.903 118.633C191.372 118.633 191.799 118.54 192.174 118.342C192.559 118.149 192.882 117.873 193.132 117.508C193.393 117.133 193.559 116.706 193.632 116.217H191.403V114.8H195.32V120.071H193.945L193.799 118.696C193.617 119.003 193.382 119.274 193.09 119.508C192.809 119.732 192.486 119.904 192.111 120.029C191.736 120.154 191.33 120.217 190.903 120.217Z" fill="#2983C6"/>
<path d="M201.021 120.092V110.321H204.187C204.646 110.321 205.073 110.383 205.479 110.508C205.88 110.633 206.234 110.821 206.541 111.071C206.859 111.31 207.109 111.607 207.291 111.967C207.468 112.331 207.562 112.732 207.562 113.175C207.562 113.592 207.479 113.967 207.312 114.3C207.146 114.633 206.916 114.925 206.625 115.175C206.343 115.415 206.021 115.592 205.646 115.717L208.375 120.092H206.354L203.958 115.904H202.791V120.092H201.021ZM202.791 114.467H204.333C204.802 114.441 205.172 114.316 205.437 114.092C205.698 113.873 205.833 113.581 205.833 113.217C205.833 112.816 205.687 112.498 205.396 112.258C205.104 112.008 204.708 111.883 204.208 111.883H202.791V114.467Z" fill="#2983C6"/>
<path d="M217.367 120.217C216.726 120.217 216.148 120.123 215.637 119.946C215.137 119.769 214.7 119.524 214.325 119.217C213.95 118.899 213.637 118.529 213.387 118.113C213.137 117.686 212.95 117.227 212.825 116.738C212.71 116.238 212.658 115.727 212.658 115.196C212.658 114.654 212.71 114.144 212.825 113.654C212.95 113.154 213.137 112.696 213.387 112.279C213.637 111.852 213.95 111.483 214.325 111.175C214.7 110.858 215.137 110.613 215.637 110.446C216.148 110.269 216.726 110.175 217.367 110.175C218.018 110.175 218.596 110.269 219.096 110.446C219.606 110.613 220.054 110.858 220.429 111.175C220.804 111.483 221.106 111.852 221.346 112.279C221.596 112.696 221.773 113.154 221.887 113.654C222.012 114.144 222.075 114.654 222.075 115.196C222.075 115.727 222.012 116.238 221.887 116.738C221.773 117.227 221.596 117.686 221.346 118.113C221.106 118.529 220.804 118.899 220.429 119.217C220.054 119.524 219.606 119.769 219.096 119.946C218.596 120.123 218.018 120.217 217.367 120.217ZM217.367 118.654C217.893 118.654 218.335 118.566 218.7 118.384C219.059 118.191 219.351 117.936 219.575 117.613C219.809 117.295 219.976 116.925 220.075 116.509C220.184 116.092 220.242 115.654 220.242 115.196C220.242 114.727 220.184 114.29 220.075 113.884C219.976 113.467 219.809 113.102 219.575 112.779C219.351 112.446 219.059 112.191 218.7 112.009C218.335 111.816 217.893 111.717 217.367 111.717C216.851 111.717 216.408 111.816 216.033 112.009C215.669 112.191 215.377 112.446 215.158 112.779C214.934 113.102 214.768 113.467 214.658 113.884C214.559 114.29 214.512 114.727 214.512 115.196C214.512 115.654 214.559 116.092 214.658 116.509C214.768 116.925 214.934 117.295 215.158 117.613C215.377 117.936 215.669 118.191 216.033 118.384C216.408 118.566 216.851 118.654 217.367 118.654Z" fill="#2983C6"/>
<path d="M229.317 120.071L226.38 110.321H228.213L230.297 117.487L232.442 110.883H233.817L235.963 117.487L238.047 110.321H239.88L236.942 120.071H235.255L233.13 113.654L231.005 120.071H229.317Z" fill="#2983C6"/>
<path d="M246.815 120.071V111.883H243.753V110.321H251.607V111.883H248.565V120.071H246.815Z" fill="#2983C6"/>
<path d="M256.575 120.071V110.321H258.346V114.383H262.617V110.321H264.367V120.071H262.617V115.987H258.346V120.071H256.575Z" fill="#2983C6"/>
<path d="M277.41 120.071V110.321H280.473C280.973 110.321 281.431 110.383 281.848 110.508C282.264 110.633 282.624 110.821 282.931 111.071C283.249 111.31 283.493 111.607 283.66 111.967C283.837 112.331 283.931 112.737 283.931 113.196C283.931 113.654 283.837 114.06 283.66 114.404C283.493 114.753 283.249 115.05 282.931 115.3C282.624 115.54 282.264 115.717 281.848 115.842C281.431 115.967 280.973 116.029 280.473 116.029H279.16V120.071H277.41ZM279.16 114.383H280.473C281.082 114.383 281.52 114.29 281.785 114.092C282.046 113.883 282.181 113.586 282.181 113.196C282.181 112.81 282.04 112.503 281.764 112.279C281.499 112.06 281.066 111.946 280.473 111.946H279.16V114.383Z" fill="#2983C6"/>
<path d="M287.872 120.071L291.789 110.321H293.101L296.976 120.071H295.08L294.33 117.946H290.539L289.789 120.071H287.872ZM291.143 116.446H293.747L292.435 112.883L291.143 116.446Z" fill="#2983C6"/>
<path d="M301.881 120.092V110.321H305.048C305.506 110.321 305.933 110.383 306.339 110.508C306.74 110.633 307.094 110.821 307.402 111.071C307.719 111.31 307.969 111.607 308.152 111.967C308.329 112.331 308.423 112.732 308.423 113.175C308.423 113.592 308.339 113.967 308.173 114.3C308.006 114.633 307.777 114.925 307.485 115.175C307.204 115.415 306.881 115.592 306.506 115.717L309.235 120.092H307.214L304.818 115.904H303.652V120.092H301.881ZM303.652 114.467H305.193C305.662 114.441 306.032 114.316 306.298 114.092C306.558 113.873 306.693 113.581 306.693 113.217C306.693 112.816 306.548 112.498 306.256 112.258C305.964 112.008 305.568 111.883 305.068 111.883H303.652V114.467Z" fill="#2983C6"/>
<path d="M316.164 120.071V111.883H313.102V110.321H320.956V111.883H317.914V120.071H316.164Z" fill="#2983C6"/>
<path d="M325.924 120.071V110.321H327.674L331.778 117.133V110.321H333.465V120.071H331.715L327.611 113.217V120.071H325.924Z" fill="#2983C6"/>
<path d="M339.531 120.071V110.321H346.031V111.925H341.302V114.383H345.698V115.987H341.302V118.404H346.031V120.071H339.531Z" fill="#2983C6"/>
<path d="M351.697 120.092V110.321H354.864C355.322 110.321 355.749 110.383 356.156 110.508C356.557 110.633 356.911 110.821 357.218 111.071C357.536 111.31 357.786 111.607 357.968 111.967C358.145 112.331 358.239 112.732 358.239 113.175C358.239 113.592 358.156 113.967 357.989 114.3C357.822 114.633 357.593 114.925 357.301 115.175C357.02 115.415 356.697 115.592 356.322 115.717L359.051 120.092H357.031L354.635 115.904H353.468V120.092H351.697ZM353.468 114.467H355.01C355.479 114.441 355.848 114.316 356.114 114.092C356.374 113.873 356.51 113.581 356.51 113.217C356.51 112.816 356.364 112.498 356.072 112.258C355.781 112.008 355.385 111.883 354.885 111.883H353.468V114.467Z" fill="#2983C6"/>
</svg>
