<svg xmlns="http://www.w3.org/2000/svg" viewBox="0 0 683.98 217.91"><defs><style>.cls-1{fill:#e92a3e;}.cls-2{fill:#264c6f;}.cls-3{fill:#fff;}</style></defs><g id="Layer_2" data-name="Layer 2"><g id="Layer_1-2" data-name="Layer 1"><path class="cls-1" d="M200.48,147.23q-8.64,0-13.43-4.41t-4.78-11.94a27.21,27.21,0,0,1,3-12.82,23,23,0,0,1,8.51-9.11,23.73,23.73,0,0,1,12.63-3.34q10.5,0,15.7,7.62L233,104.31a21.93,21.93,0,0,0-10.12-8.55,37.69,37.69,0,0,0-15.43-3,42.78,42.78,0,0,0-21.09,5.11,36.48,36.48,0,0,0-14.26,14A39.43,39.43,0,0,0,167,131.81a27.85,27.85,0,0,0,3.9,14.77,25.94,25.94,0,0,0,11.2,9.94,38.59,38.59,0,0,0,17,3.53q17.85,0,27.51-11.24l-8.92-9.1A22.63,22.63,0,0,1,200.48,147.23Z"/><path class="cls-1" d="M280.19,93.9H265.33l-42.09,65h16.07L247.77,145h30.29l3.06,13.94h15.05Zm-25.45,39.67,15.33-25.08,5.48,25.08Z"/><path class="cls-1" d="M363,129.67a25.12,25.12,0,0,0,4.92-15.61q0-9.57-6.69-14.86t-18.77-5.3H316l-13,65H318.1l3.62-18.21h12.83l10.22,18.21h15.88l-11.33-20.07A26.32,26.32,0,0,0,363,129.67Zm-14.45-4.37q-4.14,3.45-11.66,3.44H324.05l4.55-22.58h11.89c3.9,0,6.91.78,9,2.33s3.16,3.87,3.16,7Q352.66,121.87,348.53,125.3Z"/><path class="cls-1" d="M440.55,124.24a76.88,76.88,0,0,0-10.22-3.4q-4.36-1.2-6.78-2.09a11.73,11.73,0,0,1-4-2.32,4.62,4.62,0,0,1-1.58-3.58q0-3.52,3.71-5.76t10.13-2.23a35.43,35.43,0,0,1,9.48,1.26,26.56,26.56,0,0,1,8.17,3.76l5.67-11.52a33.11,33.11,0,0,0-10-4.14,52.52,52.52,0,0,0-12.45-1.44A41.89,41.89,0,0,0,417,95.48a23.15,23.15,0,0,0-10.4,7.71,19.14,19.14,0,0,0-3.67,11.61,13.58,13.58,0,0,0,2.92,9.11,18.81,18.81,0,0,0,6.92,5.16,93.35,93.35,0,0,0,10.32,3.57,50.08,50.08,0,0,1,9.2,3.3,4.82,4.82,0,0,1,2.88,4.42q0,3.52-3.63,5.57c-2.41,1.36-5.7,2-9.85,2a37.46,37.46,0,0,1-11.42-1.76,34.62,34.62,0,0,1-10-5l-6.13,11.62a35.9,35.9,0,0,0,11.33,5.2,53,53,0,0,0,14.78,2A41.91,41.91,0,0,0,436,157.31a23.89,23.89,0,0,0,10.5-7.71,18.91,18.91,0,0,0,3.72-11.66,12.88,12.88,0,0,0-2.84-8.69A18.42,18.42,0,0,0,440.55,124.24Z"/><path class="cls-1" d="M505.22,93.9H490.35l-42.08,65h16.07L472.79,145h30.29l3.07,13.94H521.2Zm-25.46,39.67,15.33-25.08,5.48,25.08Z"/><path class="cls-1" d="M587.63,106l2.51-12.08H541l-13,65h15.15l4.74-23.69h30l2.5-12.08H550.19L553.63,106Z"/><path class="cls-1" d="M633.07,93.9H618.2l-42.09,65h16.07L600.64,145h30.29L634,158.94h15.06Zm-25.46,39.67,15.33-25.08,5.48,25.08Z"/><path class="cls-1" d="M668.84,93.9l-13,65H671l13-65Z"/><path class="cls-2" d="M49.18,169.08a58.57,58.57,0,0,1-9.78,1.31q-2.82-4.11-5.61-8.42c.91-.06,1.82-.08,2.74-.08s2,0,3,.09a60,60,0,0,1,9.62,1.32l.53.13c0,.17,0,.33.05.43H72.45c0-5.92,0-11.95,0-18l2,.06v40.57l-1.94,0c0-6,0-12,0-17.93H49.79C49.88,168.91,49.55,169,49.18,169.08Z"/><rect class="cls-2" x="76.39" y="145.88" width="3.56" height="40.57"/><path class="cls-2" d="M100.16,188.5c-13.29,17.68-23.89,29.41-23.89,29.41a492.33,492.33,0,0,1-35.55-45.59A61.92,61.92,0,0,0,49.6,171a3.26,3.26,0,0,0,1.27-.53H70.46v17.89Z"/><path class="cls-2" d="M125.41,63.74a48.69,48.69,0,0,0-6.51-17.17c-.12-.21-.25-.42-.38-.63l-.73-1.11c-.24-.38-.5-.72-.75-1.08a50.2,50.2,0,0,0-11.55-11.63c-.51-.37-1-.72-1.54-1.07A49.86,49.86,0,0,0,67.5,23.31l-.13,0c-.49.09-1,.18-1.44.29h0a49,49,0,0,0-20.44,9.55c-.5.4-1,.8-1.47,1.21A50.15,50.15,0,0,0,28.64,57.86C28.3,59,28,60.1,27.75,61.25a49.4,49.4,0,0,0-1.15,7.42c-.07.86-.11,1.72-.13,2.58A50.93,50.93,0,0,0,27,80h0c.07.56.15,1.1.25,1.65a2.44,2.44,0,0,0,.06.26,44,44,0,0,0,1.19,5,49.15,49.15,0,0,0,6.41,13.55l-.23-.45h0c-.18-.35-.37-.7-.54-1s-.37-.75-.54-1.14l-.27-.6c-.46-1-.89-2.07-1.28-3.14-.12-.33-.25-.66-.35-1s-.3-.83-.43-1.27h0c-.32-1-.63-2.09-.91-3.17-1.06-3.14.49-4.55,4-4.42,2.76.1,5.51.16,8.28.24,3.23.09,6.47.19,9.7.37h.08a9.21,9.21,0,0,1,5.29,1.82c2.5,2,3.05,5.47,1.13,9.4q-.49,1-1,2c-2.36,4.68-4.88,9.27-7.21,14a7.23,7.23,0,0,1-1.16,1.77,1.34,1.34,0,0,1-.21.2,1.12,1.12,0,0,1-.2.18,49.44,49.44,0,0,0,10,5c0-.13.08-.26.13-.41l.06-.15a8.09,8.09,0,0,1,.67-1.23c.63-1,1.26-2,1.87-3,1.43-2.32,2.83-4.67,4.24-7,1.1-1.79,2.19-3.6,3.32-5.37,3.68-5.79,9.38-5.8,13.28,0,.83,1.22,1.65,2.45,2.44,3.69h0c1.34,2.06,2.66,4.15,4,6.23s2.21,3.51,2.91,4.82a12.77,12.77,0,0,1,1.12,2.56,48.5,48.5,0,0,0,7.91-3.63c.94-.53,1.87-1.1,2.77-1.71a3.88,3.88,0,0,1-2-2c-3.17-5.82-6.51-11.54-9.44-17.48-2.23-4.54.69-9.44,6-10.32l1.94-.07c1.42-.07,2.85-.11,4.3-.17,4.43-.17,8.93-.34,13.42-.57,2.74-.14,3.94,1,3.4,3.65-.21,1-.44,2-.7,3a48.36,48.36,0,0,1-2.86,8,46,46,0,0,1-4.54,7.75q.78-.87,1.53-1.77h0a47.64,47.64,0,0,0,4-5.6c.61-1,1.19-2,1.74-3.08.69-1.32,1.32-2.69,1.88-4.08.26-.64.5-1.27.73-1.91A48.71,48.71,0,0,0,125.59,80,49.69,49.69,0,0,0,125.41,63.74ZM51.72,72.68l-.52.07c-3.58.17-7.81.29-12.2.54-1.52.08-3.07.18-4.62.29-3.77.28-4.87-1.18-4.07-4.74a46.33,46.33,0,0,1,1.32-4.72A47.72,47.72,0,0,1,44.06,44.44a5,5,0,0,1,2.71-1.61c1.19-.14,2.18.69,3.13,2.48,1.65,3.09,3.34,6.16,5,9.24.51.92,1,1.83,1.5,2.75.68,1.28,1.36,2.54,2,3.82C61.46,66.91,59.08,71.6,51.72,72.68ZM77.05,85.6a7.53,7.53,0,0,1-8.43-5.92,6.72,6.72,0,0,1,0-2.41h0a7.32,7.32,0,0,1,6.06-5.78,7,7,0,0,1,8.13,6.09A7.32,7.32,0,0,1,77.05,85.6Zm4.7-30.16A6.49,6.49,0,0,1,77,58.86h-.16c-3.38.53-5.73-.61-7.34-3-1.87-2.81-3.7-5.64-5.52-8.48l-5-7.8c-1.53-2.37-1.2-4.17,1.67-5.08a49.83,49.83,0,0,1,11.75-2.33,45.92,45.92,0,0,1,17.11,2c1.57.49,2.6,1.12,2.92,2s.07,1.79-.77,3.11C88.29,44.63,85.06,50.07,81.75,55.44Zm36.17,17.29c-6.48-.2-13-.24-19.42-.56a7,7,0,0,1-4.42-1.66,9.26,9.26,0,0,1-2.7-4.6c0-.1,0-.21,0-.33a5.39,5.39,0,0,1,.29-2.23c.41-.85.84-1.7,1.26-2.55q4.3-8.7,8.77-17.32c1-1.81,2.55-1.71,4-.5a46.94,46.94,0,0,1,8.41,9.25,47.64,47.64,0,0,1,7.15,16.68C121.84,71.45,120.63,72.82,117.92,72.73Z"/><path class="cls-2" d="M76.27,0A76.21,76.21,0,0,0,0,76.27c0,25.8,15.52,57.14,32.55,83.77,1.34-.1,2.66-.15,4-.15,1.06,0,2.12,0,3.16.09a61.71,61.71,0,0,1,9.94,1.37l.41.1.17,0,1.34.33,18.89,0,0-18.06,59.34.06c12.77-22.56,22.78-46.86,22.78-67.58A76.21,76.21,0,0,0,76.27,0Zm58,94.33q-.44,1.19-.93,2.34c-.52,1.23-1.09,2.45-1.68,3.65l-.21.43c-.05.07-.08.16-.13.23a60.85,60.85,0,0,1-4,6.73c-.34.5-.7,1-1.05,1.47A62.36,62.36,0,0,1,87,133.52a56.42,56.42,0,0,1-6.39.82h0q-2.16.16-4.29.18a57.29,57.29,0,0,1-10.59-.9c-1-.18-2-.38-3.06-.61A62,62,0,0,1,30.7,114.46q-1-1-1.89-2.16a61.56,61.56,0,0,1-11.6-21.17h0l-.06-.2c-.47-1.55-.89-3.14-1.24-4.75-.2-.82-.37-1.66-.52-2.5-.22-1.22-.41-2.44-.55-3.66A62,62,0,0,1,16.4,56.73c.24-.94.5-1.87.79-2.8A62.14,62.14,0,0,1,43.63,19.62l1.34-.8a58.35,58.35,0,0,1,8.11-3.93c.54-.22,1.1-.43,1.66-.63a58.59,58.59,0,0,1,9.42-2.55,63.07,63.07,0,0,1,50.36,12c.52.4,1,.81,1.53,1.24a58.51,58.51,0,0,1,5.61,5.3c.57.61,1.12,1.23,1.66,1.86A62.64,62.64,0,0,1,136.24,88,59.09,59.09,0,0,1,134.25,94.33Z"/><path class="cls-1" d="M72.42,145.85c0,6.05,0,12.08,0,18H49.77c0-.1,0-.26-.05-.43l-.53-.13A60,60,0,0,0,39.57,162c-1-.06-2-.09-3-.09s-1.83,0-2.74.08a59.2,59.2,0,0,0-11,1.63,1.24,1.24,0,0,0-.94.82,4.57,4.57,0,0,0,0,3.61,1.1,1.1,0,0,0,.83.71,56.23,56.23,0,0,0,13.8,1.73c.95,0,1.89,0,2.84-.08a58.57,58.57,0,0,0,9.78-1.31c.37-.08.7-.17.61-.58H72.46c0,6,0,12,0,17.93l1.94,0V145.91ZM25.76,167.19a1.43,1.43,0,0,1-1,.38,1.36,1.36,0,0,1-1-.4,1.39,1.39,0,0,1,0-2,1.35,1.35,0,0,1,1-.4,1.39,1.39,0,0,1,1,2.4Z"/><path class="cls-3" d="M76.39,145.88v40.57h.12V145.88Z"/><rect class="cls-1" x="76.39" y="145.88" width="5.59" height="40.57"/></g></g></svg>